<svg width="13" height="13" fill="none" xmlns="http://www.w3.org/2000/svg"><path d="M10.334 7.668c-.905 0-1.707.454-2.189 1.146L5.197 7.339a2.656 2.656 0 000-1.678l2.948-1.475A2.665 2.665 0 1010.334 0a2.669 2.669 0 00-2.53 3.505L4.853 4.98A2.665 2.665 0 000 6.5a2.665 2.665 0 004.855 1.52l2.948 1.475A2.67 2.67 0 0010.333 13a2.67 2.67 0 002.667-2.666 2.67 2.67 0 00-2.666-2.666zm0-6.906c1.05 0 1.904.854 1.904 1.904 0 1.05-.854 1.904-1.904 1.904A1.906 1.906 0 018.43 2.666c0-1.05.854-1.904 1.904-1.904zM2.666 8.404A1.906 1.906 0 01.762 6.5c0-1.05.854-1.904 1.904-1.904 1.05 0 1.904.854 1.904 1.904 0 1.05-.854 1.904-1.904 1.904zm7.668 3.834a1.906 1.906 0 01-1.904-1.904c0-1.05.854-1.904 1.904-1.904 1.05 0 1.904.854 1.904 1.904 0 1.05-.854 1.904-1.904 1.904z" fill="#DDA33D"/></svg>